<!-- Generator: Adobe Illustrator 17.1.0, SVG Export Plug-In . SVG Version: 6.00 Build 0)  -->
<svg xmlns:rdf="http://www.w3.org/1999/02/22-rdf-syntax-ns#" xmlns="http://www.w3.org/2000/svg" version="1.1" xml:space="preserve" height="100%" width="100%" enable-background="new 0 0 595.3 841.9" y="0px" x="0px" xmlns:cc="http://creativecommons.org/ns#" xmlns:dc="http://purl.org/dc/elements/1.1/" viewBox="0 0 126.3 108.8"><metadata><rdf:RDF><cc:Work rdf:about=""><dc:format>image/svg+xml</dc:format><dc:type rdf:resource="http://purl.org/dc/dcmitype/StillImage"/><dc:title/></cc:Work></rdf:RDF></metadata><path style="fill:#afcb37;" d="m114.2,10.4c0,1.5-1.3,2.7-2.8,2.7s-2.7-1.2-2.7-2.7,1.2-2.7,2.7-2.7,2.8,1.2,2.8,2.7m-2.8,4.1c-1.5,0-2.7,1.2-2.7,2.7v7c0,1.5,1.2,2.7,2.7,2.7s2.7-1.2,2.7-2.7v-7c0-1.6-1.2-2.7-2.7-2.7m14.8,9.3c0-1.5-1.1-2.5-2.4-2.5-0.7,0-1.4,0.3-1.8,0.9-0.2,0.2-0.3,0.5-0.5,0.8-1.8,3.9-5.6,6.1-10.2,6.1-6.6,0-11.800003-4.9-11.800003-11.9s5.200003-12,11.800003-12c4.6,0,8.1,1.9,10.1,6.3,0.2,0.4,0.3,0.8,0.6,1,0.4,0.4,1,0.7,1.6,0.7,1.6,0,2.6-1.1,2.6-2.5,0-0.5,0-0.9-0.2-1.3-2-5.7-8.1-9.4-14.8-9.4-9.7,0-17.300003,7.8-17.300003,17.3,0,9.9,8.000003,17.1,17.300003,17.1,6.7,0,12.7-3.9,14.7-9.4,0.2-0.4,0.3-0.8,0.3-1.2"/><path style="fill:#afcb37;" d="M0.49999664,108.3v-13.199999h2.69999996v13.199999h-2.69999996zm15.0000004-9.299999c0-0.6-0.2-1.1-0.6-1.3-0.4-0.3-0.9-0.4-1.5-0.4-0.7,0-1.3,0.1-1.8,0.2s-0.9,0.3-1.3,0.4v10.399999h-2.7000004v-13.199999h1.8l0.3,0.7c0.5000004-0.4,1.1000004-0.6,1.8000004-0.8,0.6-0.2,1.3-0.3,1.9-0.3,1.6,0,2.9,0.4,3.7,1.1,0.8,0.8,1.2,1.8,1.2,3.1v9.299999h-2.7v-9.199999zm14.7-8.1c-0.3-0.1-0.6-0.2-1-0.2-0.4-0.1-0.8-0.1-1.2-0.1-0.7,0-1.2,0.1-1.6,0.4s-0.6,0.7-0.6,1.3v2.7h3.9v2.3h-3.9v10.899999h-2.7v-10.899999h-2.5v-1.6l2.5-0.7v-2.8c0-1.3,0.4-2.4,1.2-3.1s2-1.1,3.8-1.1h0.5c0.2,0,0.4,0,0.6,0.1,0.2,0,0.4,0.1,0.6,0.1s0.4,0.1,0.5,0.1v2.6zm12.6,13.599999c-0.1,0.9-0.4,1.6-0.8,2.2s-1,1.1-1.7,1.4c-0.8,0.3-1.7,0.5-2.9,0.5s-2.2-0.2-2.9-0.5c-0.8-0.3-1.3-0.8-1.8-1.4-0.4-0.6-0.7-1.4-0.9-2.2-0.2-0.9-0.2-1.8-0.2-2.8s0.1-1.999999,0.2-2.799999,0.4-1.6,0.9-2.2c0.4-0.6,1-1.1,1.8-1.4,0.7-0.3,1.7-0.5,2.9-0.5s2.2,0.2,2.9,0.5,1.3,0.8,1.7,1.4,0.7,1.4,0.8,2.2c0.2,0.8,0.2,1.799999,0.2,2.799999s0,2-0.2,2.8m-2.6-4.5c-0.1-0.499999-0.2-0.999999-0.4-1.399999s-0.5-0.7-0.9-0.9-1-0.3-1.6-0.3c-0.7,0-1.3,0.1-1.7,0.3s-0.7,0.5-0.9,0.9-0.3,0.9-0.4,1.399999c-0.1,0.5-0.1,1.1-0.1,1.8,0,0.6,0,1.2,0.1,1.8,0.1,0.5,0.2,1,0.4,1.4s0.5,0.7,0.9,0.9,1,0.3,1.7,0.3,1.2-0.1,1.6-0.3,0.7-0.5,0.9-0.9,0.3-0.9,0.4-1.4,0.1-1.1,0.1-1.8,0-1.3-0.1-1.8m8.8,1.7c0,0.6,0,1.2,0.1,1.7s0.2,1,0.5,1.4c0.2,0.4,0.5,0.7,1,1,0.4,0.2,0.9,0.4,1.6,0.4,0.8,0,1.6-0.1,2.2-0.2s1.3-0.3,1.9-0.6v2.5c-0.6,0.3-1.3,0.5-2.1,0.6s-1.5,0.2-2.1,0.2c-1.1,0-2-0.2-2.8-0.5s-1.4-0.8-1.8-1.4c-0.5-0.6-0.8-1.3-1-2.2s-0.3-1.8-0.3-2.8,0.1-1.999999,0.3-2.799999c0.2-0.9,0.5-1.6,1-2.2s1.1-1.1,1.8-1.4c0.8-0.3,1.7-0.5,2.8-0.5,0.6,0,1.3,0.1,2.1,0.2s1.5,0.3,2.1,0.6v2.5c-0.7-0.2-1.3-0.4-1.9-0.6-0.6-0.1-1.4-0.2-2.2-0.2-0.7,0-1.2,0.1-1.6,0.4-0.4,0.2-0.7,0.6-1,1-0.2,0.4-0.4,0.9-0.5,1.399999-0.1,0.4-0.1,0.9-0.1,1.5m13.1,1.3c0.1,0.5,0.1,0.9,0.3,1.3,0.1,0.4,0.3,0.7,0.6,1,0.2,0.3,0.5,0.5,0.9,0.7s0.8,0.2,1.4,0.2c0.8,0,1.6-0.1,2.3-0.2s1.4-0.4,2.3-0.7v2.6c-0.8,0.4-1.7,0.6-2.4,0.7-0.8,0.1-1.5,0.2-2.1,0.2-1.1,0-2-0.2-2.8-0.5s-1.4-0.8-1.8-1.4c-0.5-0.6-0.8-1.3-1-2.2s-0.3-1.8-0.3-2.8,0.1-1.999999,0.3-2.799999c0.2-0.9,0.5-1.6,1-2.2s1.1-1.1,1.8-1.4c0.8-0.3,1.7-0.5,2.8-0.5,1.2,0,2.1,0.2,2.8,0.6s1.2,0.9,1.6,1.5,0.6,1.4,0.7,2.2c0.1,0.799999,0.2,1.699999,0.2,2.699999v1.3h-8.6zm1.7-5.499999c-0.4,0.2-0.7,0.4-0.9,0.7s-0.4,0.7-0.5,1.1-0.2,0.799999-0.3,1.299999h5.6c0-0.4,0-0.899999-0.1-1.299999s-0.2-0.8-0.3-1.1c-0.2-0.3-0.4-0.6-0.7-0.7-0.3-0.2-0.7-0.3-1.3-0.3-0.7,0.1-1.2,0.2-1.5,0.3m18.5,1.5c0-0.6-0.2-1.1-0.6-1.3-0.4-0.3-0.9-0.4-1.5-0.4-0.7,0-1.3,0.1-1.8,0.2s-0.9,0.3-1.3,0.4v10.399999h-2.8v-13.199999h1.8l0.3,0.7c0.5-0.4,1.1-0.6,1.8-0.8,0.6-0.2,1.3-0.3,1.9-0.3,1.6,0,2.9,0.4,3.7,1.1,0.8,0.8,1.2,1.8,1.2,3.1v9.299999h-2.7v-9.199999zm13.6,9.499999c-0.3,0.1-0.7,0.1-1,0.1h-0.7c-0.5,0-1.1-0.1-1.6-0.2s-1-0.4-1.4-0.7-0.7-0.7-1-1.2-0.4-1-0.4-1.7v-7.499999h-2.5v-1.6l2.5-0.7v-3.3l2.7-0.7v4.1h3.9v2.3h-3.9v7.299999c0,0.6,0.2,0.9,0.5,1.1s0.8,0.3,1.4,0.3h0.8c0.3,0,0.5,0,0.7-0.1v2.5zm11.300003-10.799999c-0.3-0.1-0.7-0.2-1-0.3-0.4-0.1-0.7-0.1-0.9-0.1-0.7,0-1.3,0.1-1.8,0.2s-0.9,0.3-1.3,0.4v10.399999h-2.700003v-13.199999h1.800003l0.3,0.7c1.1-0.7,2.4-1.1,3.7-1.1,0.3,0,0.6,0,1,0.1,0.4,0,0.7,0.1,1,0.2v2.7zm11.8,3.999999c0,0.6,0,1.2,0.1,1.7s0.2,1,0.5,1.4c0.2,0.4,0.5,0.7,1,1,0.4,0.2,0.9,0.4,1.6,0.4,0.8,0,1.6-0.1,2.2-0.2s1.3-0.3,1.9-0.6v2.5c-0.6,0.3-1.3,0.5-2.1,0.6s-1.5,0.2-2.1,0.2c-1.1,0-2-0.2-2.8-0.5s-1.4-0.8-1.8-1.4-0.8-1.3-1-2.2-0.3-1.8-0.3-2.8,0.1-1.999999,0.3-2.799999c0.2-0.9,0.5-1.6,1-2.2s1.1-1.1,1.8-1.4c0.8-0.3,1.7-0.5,2.8-0.5,0.6,0,1.3,0.1,2.1,0.2s1.5,0.3,2.1,0.6v2.5c-0.7-0.2-1.3-0.4-1.9-0.6-0.6-0.1-1.4-0.2-2.2-0.2-0.7,0-1.2,0.1-1.6,0.4-0.4,0.2-0.7,0.6-1,1-0.2,0.4-0.4,0.9-0.5,1.399999,0,0.4-0.1,0.9-0.1,1.5m-118.500003-12.299999c0.4-0.4,0.79999996-0.5,1.29999996-0.5s0.9,0.2,1.3,0.5c0.4,0.4,0.5,0.8,0.5,1.3s-0.2,0.9-0.5,1.3c-0.4,0.4-0.8,0.5-1.3,0.5s-0.89999996-0.2-1.29999996-0.5c-0.4-0.4-0.499999999-0.8-0.499999999-1.3s0.199999999-0.9,0.499999999-1.3m109.600003,18.899999v-13.199999h2.7v13.199999h-2.7zm0-18.899999c0.4-0.4,0.8-0.5,1.3-0.5s0.9,0.2,1.3,0.5c0.4,0.4,0.5,0.8,0.5,1.3s-0.2,0.9-0.5,1.3c-0.4,0.4-0.8,0.5-1.3,0.5s-0.9-0.2-1.3-0.5c-0.4-0.4-0.5-0.8-0.5-1.3s0.1-0.9,0.5-1.3"/></svg>
