<?xml version="1.0" encoding="UTF-8" standalone="no"?>
<svg
   xmlns:dc="http://purl.org/dc/elements/1.1/"
   xmlns:cc="http://creativecommons.org/ns#"
   xmlns:rdf="http://www.w3.org/1999/02/22-rdf-syntax-ns#"
   xmlns:svg="http://www.w3.org/2000/svg"
   xmlns="http://www.w3.org/2000/svg"
   version="1.2"
   width="100%"
   height="100%"
   viewBox="0 0 126.3 108.8"
   id="svg3051"
   xml:space="preserve"><defs
     id="defs3061" /><metadata
     id="metadata3053"><rdf:RDF><cc:Work
         rdf:about=""><dc:format>image/svg+xml</dc:format><dc:type
           rdf:resource="http://purl.org/dc/dcmitype/StillImage" /><dc:title></dc:title></cc:Work></rdf:RDF></metadata><path
     d="m 114.2,10.4 c 0,1.5 -1.3,2.7 -2.8,2.7 -1.5,0 -2.7,-1.2 -2.7,-2.7 0,-1.5 1.2,-2.7 2.7,-2.7 1.5,0 2.8,1.2 2.8,2.7 m -2.8,4.1 c -1.5,0 -2.7,1.2 -2.7,2.7 v 7 c 0,1.5 1.2,2.7 2.7,2.7 1.5,0 2.7,-1.2 2.7,-2.7 v -7 c 0,-1.6 -1.2,-2.7 -2.7,-2.7 m 14.8,9.3 c 0,-1.5 -1.1,-2.5 -2.4,-2.5 -0.7,0 -1.4,0.3 -1.8,0.9 -0.2,0.2 -0.3,0.5 -0.5,0.8 -1.8,3.9 -5.6,6.1 -10.2,6.1 -6.6,0 -11.800003,-4.9 -11.800003,-11.9 0,-7 5.200003,-12 11.800003,-12 4.6,0 8.1,1.9 10.1,6.3 0.2,0.4 0.3,0.8 0.6,1 0.4,0.4 1,0.7 1.6,0.7 1.6,0 2.6,-1.1 2.6,-2.5 0,-0.5 0,-0.9 -0.2,-1.3 C 124,3.7 117.9,0 111.2,0 101.5,0 93.899997,7.8 93.899997,17.3 c 0,9.9 8.000003,17.1 17.300003,17.1 6.7,0 12.7,-3.9 14.7,-9.4 0.2,-0.4 0.3,-0.8 0.3,-1.2"
     id="path3055"
     style="fill:#afcb37" /><path
     d="M 0.49999664,108.3 V 95.100001 H 3.1999966 V 108.3 H 0.49999664 z M 15.499997,99.000001 c 0,-0.6 -0.2,-1.1 -0.6,-1.3 -0.4,-0.3 -0.9,-0.4 -1.5,-0.4 -0.7,0 -1.3,0.1 -1.8,0.2 -0.5,0.1 -0.9,0.3 -1.3,0.4 V 108.3 H 7.5999966 V 95.100001 h 1.8 l 0.3,0.7 c 0.5000004,-0.4 1.1000004,-0.6 1.8000004,-0.8 0.6,-0.2 1.3,-0.3 1.9,-0.3 1.6,0 2.9,0.4 3.7,1.1 0.8,0.8 1.2,1.8 1.2,3.1 V 108.2 h -2.7 v -9.199999 z m 14.7,-8.1 c -0.3,-0.1 -0.6,-0.2 -1,-0.2 -0.4,-0.1 -0.8,-0.1 -1.2,-0.1 -0.7,0 -1.2,0.1 -1.6,0.4 -0.4,0.3 -0.6,0.7 -0.6,1.3 v 2.7 h 3.9 v 2.3 h -3.9 V 108.2 h -2.7 V 97.300001 h -2.5 v -1.6 l 2.5,-0.7 v -2.8 c 0,-1.3 0.4,-2.4 1.2,-3.1 0.8,-0.7 2,-1.1 3.8,-1.1 h 0.5 c 0.2,0 0.4,0 0.6,0.1 0.2,0 0.4,0.1 0.6,0.1 0.2,0 0.4,0.1 0.5,0.1 v 2.6 z m 12.6,13.599999 c -0.1,0.9 -0.4,1.6 -0.8,2.2 -0.4,0.6 -1,1.1 -1.7,1.4 -0.8,0.3 -1.7,0.5 -2.9,0.5 -1.2,0 -2.2,-0.2 -2.9,-0.5 -0.8,-0.3 -1.3,-0.8 -1.8,-1.4 -0.4,-0.6 -0.7,-1.4 -0.9,-2.2 -0.2,-0.9 -0.2,-1.8 -0.2,-2.8 0,-1 0.1,-1.999999 0.2,-2.799999 0.1,-0.8 0.4,-1.6 0.9,-2.2 0.4,-0.6 1,-1.1 1.8,-1.4 0.7,-0.3 1.7,-0.5 2.9,-0.5 1.2,0 2.2,0.2 2.9,0.5 0.7,0.3 1.3,0.8 1.7,1.4 0.4,0.6 0.7,1.4 0.8,2.2 0.2,0.8 0.2,1.799999 0.2,2.799999 0,1 0,2 -0.2,2.8 m -2.6,-4.5 c -0.1,-0.499999 -0.2,-0.999999 -0.4,-1.399999 -0.2,-0.4 -0.5,-0.7 -0.9,-0.9 -0.4,-0.2 -1,-0.3 -1.6,-0.3 -0.7,0 -1.3,0.1 -1.7,0.3 -0.4,0.2 -0.7,0.5 -0.9,0.9 -0.2,0.4 -0.3,0.9 -0.4,1.399999 -0.1,0.5 -0.1,1.1 -0.1,1.8 0,0.6 0,1.2 0.1,1.8 0.1,0.5 0.2,1 0.4,1.4 0.2,0.4 0.5,0.7 0.9,0.9 0.4,0.2 1,0.3 1.7,0.3 0.7,0 1.2,-0.1 1.6,-0.3 0.4,-0.2 0.7,-0.5 0.9,-0.9 0.2,-0.4 0.3,-0.9 0.4,-1.4 0.1,-0.5 0.1,-1.1 0.1,-1.8 0,-0.7 0,-1.3 -0.1,-1.8 m 8.8,1.7 c 0,0.6 0,1.2 0.1,1.7 0.1,0.5 0.2,1 0.5,1.4 0.2,0.4 0.5,0.7 1,1 0.4,0.2 0.9,0.4 1.6,0.4 0.8,0 1.6,-0.1 2.2,-0.2 0.6,-0.1 1.3,-0.3 1.9,-0.6 v 2.5 c -0.6,0.3 -1.3,0.5 -2.1,0.6 -0.8,0.1 -1.5,0.2 -2.1,0.2 -1.1,0 -2,-0.2 -2.8,-0.5 -0.8,-0.3 -1.4,-0.8 -1.8,-1.4 -0.5,-0.6 -0.8,-1.3 -1,-2.2 -0.2,-0.9 -0.3,-1.8 -0.3,-2.8 0,-1 0.1,-1.999999 0.3,-2.799999 0.2,-0.9 0.5,-1.6 1,-2.2 0.5,-0.6 1.1,-1.1 1.8,-1.4 0.8,-0.3 1.7,-0.5 2.8,-0.5 0.6,0 1.3,0.1 2.1,0.2 0.8,0.1 1.5,0.3 2.1,0.6 v 2.5 c -0.7,-0.2 -1.3,-0.4 -1.9,-0.6 -0.6,-0.1 -1.4,-0.2 -2.2,-0.2 -0.7,0 -1.2,0.1 -1.6,0.4 -0.4,0.2 -0.7,0.6 -1,1 -0.2,0.4 -0.4,0.9 -0.5,1.399999 -0.1,0.4 -0.1,0.9 -0.1,1.5 m 13.1,1.3 c 0.1,0.5 0.1,0.9 0.3,1.3 0.1,0.4 0.3,0.7 0.6,1 0.2,0.3 0.5,0.5 0.9,0.7 0.4,0.2 0.8,0.2 1.4,0.2 0.8,0 1.6,-0.1 2.3,-0.2 0.7,-0.1 1.4,-0.4 2.3,-0.7 v 2.6 c -0.8,0.4 -1.7,0.6 -2.4,0.7 -0.8,0.1 -1.5,0.2 -2.1,0.2 -1.1,0 -2,-0.2 -2.8,-0.5 -0.8,-0.3 -1.4,-0.8 -1.8,-1.4 -0.5,-0.6 -0.8,-1.3 -1,-2.2 -0.2,-0.9 -0.3,-1.8 -0.3,-2.8 0,-1 0.1,-1.999999 0.3,-2.799999 0.2,-0.9 0.5,-1.6 1,-2.2 0.5,-0.6 1.1,-1.1 1.8,-1.4 0.8,-0.3 1.7,-0.5 2.8,-0.5 1.2,0 2.1,0.2 2.8,0.6 0.7,0.4 1.2,0.9 1.6,1.5 0.4,0.6 0.6,1.4 0.7,2.2 0.1,0.799999 0.2,1.699999 0.2,2.699999 v 1.3 h -8.6 z m 1.7,-5.499999 c -0.4,0.2 -0.7,0.4 -0.9,0.7 -0.2,0.3 -0.4,0.7 -0.5,1.1 -0.1,0.4 -0.2,0.799999 -0.3,1.299999 h 5.6 c 0,-0.4 0,-0.899999 -0.1,-1.299999 -0.1,-0.4 -0.2,-0.8 -0.3,-1.1 -0.2,-0.3 -0.4,-0.6 -0.7,-0.7 -0.3,-0.2 -0.7,-0.3 -1.3,-0.3 -0.7,0.1 -1.2,0.2 -1.5,0.3 m 18.5,1.5 c 0,-0.6 -0.2,-1.1 -0.6,-1.3 -0.4,-0.3 -0.9,-0.4 -1.5,-0.4 -0.7,0 -1.3,0.1 -1.8,0.2 -0.5,0.1 -0.9,0.3 -1.3,0.4 V 108.3 h -2.8 V 95.100001 h 1.8 l 0.3,0.7 c 0.5,-0.4 1.1,-0.6 1.8,-0.8 0.6,-0.2 1.3,-0.3 1.9,-0.3 1.6,0 2.9,0.4 3.7,1.1 0.8,0.8 1.2,1.8 1.2,3.1 V 108.2 h -2.7 v -9.199999 z m 13.6,9.499999 c -0.3,0.1 -0.7,0.1 -1,0.1 h -0.7 c -0.5,0 -1.1,-0.1 -1.6,-0.2 -0.5,-0.1 -1,-0.4 -1.4,-0.7 -0.4,-0.3 -0.7,-0.7 -1,-1.2 -0.3,-0.5 -0.4,-1 -0.4,-1.7 v -7.499999 h -2.5 v -1.6 l 2.5,-0.7 v -3.3 l 2.7,-0.7 v 4.1 h 3.9 v 2.3 h -3.9 V 104.7 c 0,0.6 0.2,0.9 0.5,1.1 0.3,0.2 0.8,0.3 1.4,0.3 h 0.8 c 0.3,0 0.5,0 0.7,-0.1 v 2.5 z M 107.2,97.700001 c -0.3,-0.1 -0.7,-0.2 -1,-0.3 -0.4,-0.1 -0.7,-0.1 -0.9,-0.1 -0.7,0 -1.3,0.1 -1.8,0.2 -0.5,0.1 -0.9,0.3 -1.3,0.4 V 108.3 H 99.499997 V 95.100001 H 101.3 l 0.3,0.7 c 1.1,-0.7 2.4,-1.1 3.7,-1.1 0.3,0 0.6,0 1,0.1 0.4,0 0.7,0.1 1,0.2 v 2.7 z M 119,101.7 c 0,0.6 0,1.2 0.1,1.7 0.1,0.5 0.2,1 0.5,1.4 0.2,0.4 0.5,0.7 1,1 0.4,0.2 0.9,0.4 1.6,0.4 0.8,0 1.6,-0.1 2.2,-0.2 0.6,-0.1 1.3,-0.3 1.9,-0.6 v 2.5 c -0.6,0.3 -1.3,0.5 -2.1,0.6 -0.8,0.1 -1.5,0.2 -2.1,0.2 -1.1,0 -2,-0.2 -2.8,-0.5 -0.8,-0.3 -1.4,-0.8 -1.8,-1.4 -0.4,-0.6 -0.8,-1.3 -1,-2.2 -0.2,-0.9 -0.3,-1.8 -0.3,-2.8 0,-1 0.1,-1.999999 0.3,-2.799999 0.2,-0.9 0.5,-1.6 1,-2.2 0.5,-0.6 1.1,-1.1 1.8,-1.4 0.8,-0.3 1.7,-0.5 2.8,-0.5 0.6,0 1.3,0.1 2.1,0.2 0.8,0.1 1.5,0.3 2.1,0.6 v 2.5 c -0.7,-0.2 -1.3,-0.4 -1.9,-0.6 -0.6,-0.1 -1.4,-0.2 -2.2,-0.2 -0.7,0 -1.2,0.1 -1.6,0.4 -0.4,0.2 -0.7,0.6 -1,1 -0.2,0.4 -0.4,0.9 -0.5,1.399999 0,0.4 -0.1,0.9 -0.1,1.5 M 0.49999704,89.400001 c 0.4,-0.4 0.79999996,-0.5 1.29999996,-0.5 0.5,0 0.9,0.2 1.3,0.5 0.4,0.4 0.5,0.8 0.5,1.3 0,0.5 -0.2,0.9 -0.5,1.3 -0.4,0.4 -0.8,0.5 -1.3,0.5 -0.5,0 -0.89999996,-0.2 -1.29999996,-0.5 -0.4,-0.4 -0.499999999,-0.8 -0.499999999,-1.3 0,-0.5 0.199999999,-0.9 0.499999999,-1.3 M 110.1,108.3 V 95.100001 h 2.7 V 108.3 h -2.7 z m 0,-18.899999 c 0.4,-0.4 0.8,-0.5 1.3,-0.5 0.5,0 0.9,0.2 1.3,0.5 0.4,0.4 0.5,0.8 0.5,1.3 0,0.5 -0.2,0.9 -0.5,1.3 -0.4,0.4 -0.8,0.5 -1.3,0.5 -0.5,0 -0.9,-0.2 -1.3,-0.5 -0.4,-0.4 -0.5,-0.8 -0.5,-1.3 0,-0.5 0.1,-0.9 0.5,-1.3"
     id="path3057"
     style="fill:#afcb37" /></svg>